<svg width="1280" height="720" viewBox="0 0 1280 720" fill="none" xmlns="http://www.w3.org/2000/svg">
  <rect width="1280" height="720" rx="24" fill="#131C29"/>
  <rect x="28" y="28" width="1224" height="56" rx="16" fill="#1D2A3A"/>
  <rect x="48" y="46" width="124" height="20" rx="10" fill="#6BA7FF" fill-opacity="0.2"/>
  <rect x="184" y="46" width="168" height="20" rx="10" fill="#D8E2F0" fill-opacity="0.12"/>
  <rect x="1086" y="42" width="132" height="28" rx="14" fill="#203349"/>
  <rect x="32" y="100" width="84" height="588" rx="18" fill="#1B2635"/>
  <rect x="136" y="100" width="872" height="588" rx="18" fill="#172231"/>
  <rect x="1032" y="100" width="216" height="588" rx="18" fill="#1B2635"/>

  <g opacity="0.75">
    <path d="M186 148H954" stroke="#223246" stroke-width="2"/>
    <path d="M186 212H954" stroke="#223246" stroke-width="2"/>
    <path d="M186 276H954" stroke="#223246" stroke-width="2"/>
    <path d="M186 340H954" stroke="#223246" stroke-width="2"/>
    <path d="M186 404H954" stroke="#223246" stroke-width="2"/>
    <path d="M186 468H954" stroke="#223246" stroke-width="2"/>
    <path d="M186 532H954" stroke="#223246" stroke-width="2"/>
    <path d="M186 596H954" stroke="#223246" stroke-width="2"/>
    <path d="M218 116V656" stroke="#223246" stroke-width="2"/>
    <path d="M282 116V656" stroke="#223246" stroke-width="2"/>
    <path d="M346 116V656" stroke="#223246" stroke-width="2"/>
    <path d="M410 116V656" stroke="#223246" stroke-width="2"/>
    <path d="M474 116V656" stroke="#223246" stroke-width="2"/>
    <path d="M538 116V656" stroke="#223246" stroke-width="2"/>
    <path d="M602 116V656" stroke="#223246" stroke-width="2"/>
    <path d="M666 116V656" stroke="#223246" stroke-width="2"/>
    <path d="M730 116V656" stroke="#223246" stroke-width="2"/>
    <path d="M794 116V656" stroke="#223246" stroke-width="2"/>
    <path d="M858 116V656" stroke="#223246" stroke-width="2"/>
    <path d="M922 116V656" stroke="#223246" stroke-width="2"/>
  </g>

  <rect x="340" y="180" width="430" height="300" rx="18" fill="#223145" fill-opacity="0.52" stroke="#F7C948" stroke-width="8" stroke-dasharray="20 14"/>
  <rect x="360" y="200" width="390" height="260" rx="12" fill="#182231"/>
  <rect x="390" y="228" width="132" height="86" rx="12" fill="#4E6A8E"/>
  <rect x="550" y="228" width="84" height="84" rx="10" fill="#40556F"/>
  <rect x="664" y="228" width="56" height="160" rx="10" fill="#354A63"/>
  <rect x="424" y="346" width="216" height="46" rx="12" fill="#2D4158"/>

  <rect x="192" y="286" width="96" height="96" rx="18" fill="#2C8F7A" stroke="#7FE9CC" stroke-width="6"/>
  <circle cx="240" cy="334" r="20" fill="#BDF4E7"/>
  <path d="M228 334H252" stroke="#22685A" stroke-width="8" stroke-linecap="round"/>
  <path d="M240 322V346" stroke="#22685A" stroke-width="8" stroke-linecap="round"/>

  <path d="M288 334H338" stroke="#4CC9F0" stroke-width="10" stroke-linecap="round"/>
  <path d="M338 334V456" stroke="#4CC9F0" stroke-width="10" stroke-linecap="round" stroke-dasharray="14 14"/>
  <path d="M338 456H430" stroke="#4CC9F0" stroke-width="10" stroke-linecap="round"/>
  <circle cx="430" cy="456" r="20" fill="#0F1722" stroke="#4CC9F0" stroke-width="8"/>
  <path d="M418 456H442" stroke="#4CC9F0" stroke-width="8" stroke-linecap="round"/>
  <path d="M430 444V468" stroke="#4CC9F0" stroke-width="8" stroke-linecap="round"/>

  <rect x="140" y="548" width="206" height="92" rx="18" fill="#112031" stroke="#24405E"/>
  <circle cx="176" cy="594" r="12" fill="#2C8F7A"/>
  <rect x="200" y="580" width="122" height="10" rx="5" fill="#D9E8F5" fill-opacity="0.82"/>
  <rect x="200" y="602" width="96" height="10" rx="5" fill="#9EB4CA" fill-opacity="0.7"/>

  <rect x="812" y="548" width="180" height="92" rx="18" fill="#112031" stroke="#24405E"/>
  <circle cx="848" cy="594" r="12" fill="#4CC9F0"/>
  <rect x="872" y="580" width="96" height="10" rx="5" fill="#D9E8F5" fill-opacity="0.82"/>
  <rect x="872" y="602" width="70" height="10" rx="5" fill="#9EB4CA" fill-opacity="0.7"/>

  <path d="M110 142H70C58.9543 142 50 150.954 50 162V202" stroke="#7AA2C8" stroke-width="8" stroke-linecap="round"/>
  <rect x="56" y="214" width="36" height="36" rx="10" fill="#223349"/>
  <rect x="56" y="268" width="36" height="36" rx="10" fill="#223349"/>
  <rect x="56" y="322" width="36" height="36" rx="10" fill="#3A5777"/>
  <rect x="56" y="376" width="36" height="36" rx="10" fill="#223349"/>

  <rect x="1052" y="132" width="176" height="108" rx="16" fill="#152536"/>
  <rect x="1072" y="156" width="132" height="14" rx="7" fill="#E8F0FA" fill-opacity="0.9"/>
  <rect x="1072" y="184" width="92" height="12" rx="6" fill="#91A8C0" fill-opacity="0.8"/>
  <rect x="1072" y="208" width="116" height="12" rx="6" fill="#91A8C0" fill-opacity="0.45"/>

  <rect x="1038" y="268" width="204" height="172" rx="16" fill="#152536"/>
  <rect x="1060" y="296" width="160" height="14" rx="7" fill="#E8F0FA" fill-opacity="0.9"/>
  <rect x="1060" y="328" width="148" height="22" rx="11" fill="#2C8F7A" fill-opacity="0.25"/>
  <rect x="1060" y="364" width="148" height="22" rx="11" fill="#F7C948" fill-opacity="0.24"/>
  <rect x="1060" y="400" width="148" height="22" rx="11" fill="#4CC9F0" fill-opacity="0.22"/>

  <path d="M304 260L338 240" stroke="#F7C948" stroke-width="6" stroke-linecap="round"/>
  <path d="M304 408L338 428" stroke="#4CC9F0" stroke-width="6" stroke-linecap="round"/>
</svg>